<?xml version="1.0" standalone="no"?><!DOCTYPE svg PUBLIC "-//W3C//DTD SVG 1.1//EN" "http://www.w3.org/Graphics/SVG/1.1/DTD/svg11.dtd"><svg class="icon" width="128px" height="128.00px" viewBox="0 0 1024 1024" version="1.1" xmlns="http://www.w3.org/2000/svg"><path fill="#8a8a8a" d="M512 170.666667a128 128 0 1 0 0 256 128 128 0 0 0 0-256zM298.666667 298.666667a213.333333 213.333333 0 1 1 426.666666 0A213.333333 213.333333 0 0 1 298.666667 298.666667zM149.333333 810.666667a213.333333 213.333333 0 0 1 213.333334-213.333334h298.666666a213.333333 213.333333 0 0 1 213.333334 213.333334v85.333333h-85.333334v-85.333333a128 128 0 0 0-128-128h-298.666666a128 128 0 0 0-128 128v85.333333h-85.333334v-85.333333z" /></svg>