<?xml version="1.0" standalone="no"?><!DOCTYPE svg PUBLIC "-//W3C//DTD SVG 1.1//EN" "http://www.w3.org/Graphics/SVG/1.1/DTD/svg11.dtd"><svg class="icon" width="128px" height="128.00px" viewBox="0 0 1024 1024" version="1.1" xmlns="http://www.w3.org/2000/svg"><path fill="#1296db" d="M608 616.533333c70.4-34.133333 117.333333-106.666667 117.333333-189.866666 0-117.333333-96-213.333333-213.333333-213.333334s-213.333333 96-213.333333 213.333334c0 83.2 49.066667 155.733333 117.333333 189.866666-89.6 32-162.133333 110.933333-181.333333 209.066667-2.133333 6.4 0 12.8 4.266666 17.066667 4.266667 4.266667 10.666667 8.533333 17.066667 8.533333h512c6.4 0 12.8-2.133333 17.066667-8.533333 4.266667-4.266667 6.4-10.666667 4.266666-17.066667-19.2-98.133333-89.6-174.933333-181.333333-209.066667zM258.133333 490.666667c0-10.666667-6.4-19.2-17.066666-21.333334-61.866667-14.933333-72.533333-78.933333-72.533334-115.2 0-68.266667 46.933333-119.466667 108.8-119.466666 12.8 0 21.333333-8.533333 21.333334-21.333334s-8.533333-21.333333-21.333334-21.333333c-85.333333 0-151.466667 68.266667-151.466666 162.133333 0 61.866667 21.333333 106.666667 57.6 134.4-59.733333 25.6-104.533333 76.8-117.333334 147.2-2.133333 10.666667 4.266667 23.466667 17.066667 25.6h4.266667c10.666667 0 19.2-6.4 21.333333-17.066666 14.933333-70.4 61.866667-117.333333 132.266667-128 10.666667-2.133333 19.2-12.8 17.066666-25.6zM962.133333 637.866667c-14.933333-70.4-57.6-121.6-117.333333-147.2 36.266667-27.733333 57.6-74.666667 57.6-134.4 0-91.733333-66.133333-162.133333-151.466667-162.133334-12.8 0-21.333333 8.533333-21.333333 21.333334s8.533333 21.333333 21.333333 21.333333c64 0 108.8 51.2 108.8 119.466667 0 36.266667-8.533333 100.266667-72.533333 115.2-10.666667 2.133333-14.933333 10.666667-14.933333 21.333333v2.133333c-2.133333 10.666667 6.4 23.466667 17.066666 23.466667 70.4 10.666667 117.333333 57.6 132.266667 128 2.133333 10.666667 10.666667 17.066667 21.333333 17.066667h4.266667c10.666667-4.266667 17.066667-14.933333 14.933333-25.6z"  /></svg>