<?xml version="1.0" standalone="no"?><!DOCTYPE svg PUBLIC "-//W3C//DTD SVG 1.1//EN" "http://www.w3.org/Graphics/SVG/1.1/DTD/svg11.dtd"><svg class="icon" width="16px" height="16.00px" viewBox="0 0 1024 1024" version="1.1" xmlns="http://www.w3.org/2000/svg"><path d="M513 821.3c-200.7 0-367.5-183.4-429.9-262.3-22-27.8-22-66.7 0-94.5 62.4-78.9 229.2-262.3 429.9-262.3 200.7 0 367.5 183.4 429.9 262.3 22 27.8 22 66.7 0 94.5C880.5 637.9 713.7 821.3 513 821.3zM513 258.3c-75.6 0-155.2 31.3-236.7 93-69.8 52.9-123.5 115.5-149.3 148-5.8 7.3-5.8 17.6 0 25 25.8 32.6 79.5 95.2 149.3 148 81.5 61.7 161.1 93 236.7 93s155.2-31.3 236.7-93c69.8-52.9 123.5-115.5 149.3-148 5.8-7.3 5.8-17.6 0-25-25.8-32.6-79.5-95.2-149.3-148C668.2 289.6 588.6 258.3 513 258.3z"  /><path d="M513 695.8c-101.5 0-184-82.5-184-184s82.5-184 184-184c101.5 0 184 82.5 184 184S614.5 695.8 513 695.8zM513 383.8c-70.6 0-128 57.4-128 128s57.4 128 128 128c70.6 0 128-57.4 128-128S583.6 383.8 513 383.8z"  /><path d="M513 511.8m-55.8 0a55.8 55.8 0 1 0 111.6 0 55.8 55.8 0 1 0-111.6 0Z"  /></svg>