<?xml version="1.0" encoding="UTF-8"?>
<svg width="16" height="16" viewBox="0 0 16 16" fill="none" xmlns="http://www.w3.org/2000/svg">
  <path fill-rule="evenodd" clip-rule="evenodd" d="M10.442 11.1495C9.41948 11.9186 8.12475 12.3636 6.72727 12.3636C3.01596 12.3636 0 9.34764 0 5.63634C0 1.92504 3.01596 -0.0909424 6.72727 -0.0909424C10.4386 -0.0909424 13.4545 1.92504 13.4545 5.63634C13.4545 7.03382 13.0095 8.32856 12.2404 9.35109L16 13.1107L14.2013 14.9094L10.442 11.1495ZM11.6364 5.63634C11.6364 8.34436 9.43528 10.5455 6.72727 10.5455C4.01925 10.5455 1.81818 8.34436 1.81818 5.63634C1.81818 2.92832 4.01925 0.727234 6.72727 0.727234C9.43528 0.727234 11.6364 2.92832 11.6364 5.63634Z" fill="#808080"/>
</svg> 