<?xml version="1.0" standalone="no"?><!DOCTYPE svg PUBLIC "-//W3C//DTD SVG 1.1//EN" "http://www.w3.org/Graphics/SVG/1.1/DTD/svg11.dtd"><svg class="icon" width="128px" height="128.00px" viewBox="0 0 1024 1024" version="1.1" xmlns="http://www.w3.org/2000/svg"><path fill="#1296db" d="M632.32 42.666667H391.68l-27.605333 138.112a362.325333 362.325333 0 0 0-64.853334 37.546666l-133.546666-45.184-120.277334 208.384 105.856 93.013334a366.464 366.464 0 0 0 0 74.922666l-105.856 93.013334 120.32 208.384 133.504-45.141334c20.138667 14.592 41.813333 27.221333 64.853334 37.504L391.68 981.333333h240.64l27.605333-138.112a362.538667 362.538667 0 0 0 64.853334-37.546666l133.546666 45.184 120.32-208.384-105.898666-93.013334a365.909333 365.909333 0 0 0 0-74.922666l105.856-93.013334-120.32-208.384-133.461334 45.141334a362.368 362.368 0 0 0-64.853333-37.504L632.32 42.666667zM512 682.666667a170.666667 170.666667 0 1 1 0-341.333334 170.666667 170.666667 0 0 1 0 341.333334z" /></svg>