<?xml version="1.0" standalone="no"?><!DOCTYPE svg PUBLIC "-//W3C//DTD SVG 1.1//EN" "http://www.w3.org/Graphics/SVG/1.1/DTD/svg11.dtd"><svg class="icon" width="128px" height="128.00px" viewBox="0 0 1024 1024" version="1.1" xmlns="http://www.w3.org/2000/svg"><path fill="#8a8a8a" d="M391.68 42.666667h240.64l27.605333 138.112a362.368 362.368 0 0 1 64.853334 37.546666l133.504-45.184 120.32 208.384-105.856 93.013334a365.952 365.952 0 0 1 0 74.922666l105.813333 93.013334-120.277333 208.384-133.504-45.141334a362.538667 362.538667 0 0 1-64.853334 37.504L632.277333 981.333333H391.68l-27.605333-138.112a362.496 362.496 0 0 1-64.853334-37.546666l-133.504 45.184-120.32-208.384 105.856-93.013334a366.378667 366.378667 0 0 1 0-74.922666l-105.813333-93.013334 120.32-208.384 133.461333 45.141334a362.325333 362.325333 0 0 1 64.853334-37.504L391.68 42.666667z m69.973333 85.333333l-23.125333 115.413333-22.4 8.234667a276.992 276.992 0 0 0-81.578667 47.189333l-18.346666 15.317334-111.573334-37.76-50.346666 87.210666 88.405333 77.696-4.053333 23.509334a279.466667 279.466667 0 0 0 0 94.378666l4.053333 23.466667-88.448 77.738667 50.346667 87.210666 111.616-37.76 18.346666 15.317334c24.106667 20.053333 51.626667 36.138667 81.578667 47.189333l22.4 8.234667L461.653333 896h100.693334l23.125333-115.413333 22.4-8.234667a277.077333 277.077333 0 0 0 81.578667-47.189333l18.346666-15.317334 111.616 37.76 50.346667-87.210666-88.405333-77.696 4.010666-23.509334a279.552 279.552 0 0 0 0-94.378666l-4.010666-23.466667 88.405333-77.738667-50.346667-87.210666-111.616 37.76-18.346666-15.317334a276.906667 276.906667 0 0 0-81.578667-47.189333l-22.4-8.234667L562.346667 128h-100.693334zM512 384a128 128 0 1 0 0 256 128 128 0 0 0 0-256z m-213.333333 128a213.333333 213.333333 0 1 1 426.666666 0 213.333333 213.333333 0 0 1-426.666666 0z" /></svg>