<?xml version="1.0" standalone="no"?><!DOCTYPE svg PUBLIC "-//W3C//DTD SVG 1.1//EN" "http://www.w3.org/Graphics/SVG/1.1/DTD/svg11.dtd"><svg class="icon" width="128px" height="128.00px" viewBox="0 0 1024 1024" version="1.1" xmlns="http://www.w3.org/2000/svg"><path fill="#8a8a8a" d="M490.666667 170.666667a149.333333 149.333333 0 1 0 0 298.666666 149.333333 149.333333 0 0 0 0-298.666666zM256 320a234.666667 234.666667 0 1 1 469.333333 0 234.666667 234.666667 0 0 1-469.333333 0zM810.666667 554.666667v170.666666h170.666666v85.333334h-170.666666v170.666666h-85.333334v-170.666666h-170.666666v-85.333334h170.666666v-170.666666h85.333334zM341.333333 682.666667a170.666667 170.666667 0 0 0-170.666666 170.666666h343.466666v85.333334H85.333333v-85.333334a256 256 0 0 1 256-256h170.666667v85.333334H341.333333z" /></svg>