<?xml version="1.0" standalone="no"?><!DOCTYPE svg PUBLIC "-//W3C//DTD SVG 1.1//EN" "http://www.w3.org/Graphics/SVG/1.1/DTD/svg11.dtd"><svg class="icon" width="16px" height="16.00px" viewBox="0 0 1024 1024" version="1.1" xmlns="http://www.w3.org/2000/svg"><path d="M899.5 522.8l-70.1-67.2 38.7-40.4 70.1 67.2c11.2 10.7 11.6 28.4 0.9 39.6l0 0C928.4 533.1 910.7 533.5 899.5 522.8z"  /><path d="M717.9 654.4L675 554.6l51.5-22.1 42.9 99.9c6.1 14.2-0.5 30.7-14.7 36.8h0C740.5 675.2 724 668.6 717.9 654.4z"  /><path d="M86.9 521.9L86.9 521.9c-10.7-11.2-10.3-28.9 0.9-39.6l70.1-67.2 38.7 40.4-70.1 67.2C115.3 533.5 97.6 533.1 86.9 521.9z"  /><path d="M271.3 669.1L271.3 669.1c-14.2-6.1-20.8-22.6-14.7-36.8l42.9-99.9 51.5 22.1-42.9 99.9C302 668.6 285.5 675.2 271.3 669.1z"  /><path d="M513 721.7L513 721.7c-15.5 0-28-12.5-28-28V585.1h56v108.7C541 709.2 528.5 721.7 513 721.7z"  /><path d="M513 611.4c-200.7 0-367.5-183.4-429.9-262.3-1-1.3-2-2.6-2.9-3.9-12.7-18.3 0.6-43.3 22.9-43.3h1.4c8.8 0 16.8 4.5 21.9 11.6 0.2 0.3 0.4 0.6 0.6 0.9 25.8 32.6 79.5 95.2 149.3 148 81.5 61.7 161.1 93 236.7 93 75.6 0 155.2-31.3 236.7-93 69.8-52.9 123.5-115.5 149.3-148 0.2-0.3 0.4-0.6 0.6-0.9 5.1-7.1 13.1-11.6 21.9-11.6h1.4c22.3 0 35.6 25 22.9 43.3-0.9 1.3-1.9 2.6-2.9 3.9C880.5 427.9 713.7 611.4 513 611.4z"  /></svg>